# File created by Blade
# Date/Time:  Thu Sep 25 17:33:50 2014
# Frame Rate: 120.000 fps
#------------------------------------------------------
:FULLY-SPECIFIED
:DEGREES
1615
root -4.001292 32.657479 -1.313895 10.575691 -4.614373 -1.840766
Spine -9.572506 9.869808 0.052640
Head -2.903655 -20.618257 9.777564
LeftShoulder -10.762250 27.573167 12.945450
LeftArm 30.518459 38.693824 -61.218757
LeftForeArm 15.525654 -0.000000 42.153368
LeftHand -26.292249 0.000000 13.720693
LeftHandThumb1 -26.253704 0.000000 33.147579
RightShoulder -17.515275 16.348385 -29.515828
RightArm 23.741170 -27.120894 84.079308
RightForeArm -3.527856 0.000000 134.504565
RightHand 0.304434 -0.000000 -3.309380
RightHandThumb1 -24.326973 -0.000000 -32.862282
LeftUpLeg -4.172109 6.174962 -1.218750
LeftLeg 0.324325 -0.000000 -0.000000
LeftFoot -18.064283 18.877774 -19.695334
LeftToeBase 4.807434 -0.000000 -0.000000
RightUpLeg -17.159641 -3.351605 2.550618
RightLeg 18.386931 -0.000000 -0.000000
RightFoot -14.573912 -4.061642 -2.468091
RightToeBase -0.116693 -0.000000 0.000000
1616
root -3.994871 32.649161 -1.344810 10.629621 -4.684295 -1.615589
Spine -9.391252 9.839486 -0.214045
Head -3.172006 -20.609085 9.956866
LeftShoulder -10.658857 27.439537 13.082408
LeftArm 30.607726 38.547503 -61.149999
LeftForeArm 15.624215 -0.000000 43.037785
LeftHand -26.171077 0.000000 13.135276
LeftHandThumb1 -26.253704 0.000000 33.147579
RightShoulder -17.472776 16.550716 -29.654144
RightArm 23.979501 -27.072038 84.217937
RightForeArm -3.765579 -0.000000 134.573532
RightHand 0.402065 -0.000000 -3.349748
RightHandThumb1 -24.326973 -0.000000 -32.862282
LeftUpLeg -4.333706 6.306448 -1.479427
LeftLeg 0.400888 -0.000000 -0.000000
LeftFoot -18.041311 18.791636 -19.681727
LeftToeBase 4.863096 -0.000000 -0.000000
RightUpLeg -17.905600 -3.150231 2.344004
RightLeg 19.678316 -0.000000 -0.000000
RightFoot -14.886548 -4.546305 -2.525478
RightToeBase -0.198664 -0.000000 0.000000
1617
root -4.000338 32.642911 -1.375136 10.679105 -4.704847 -1.464399
Spine -9.207861 9.813259 -0.415639
Head -3.422337 -20.668965 10.158609
LeftShoulder -10.459824 27.285596 13.256568
LeftArm 30.623978 38.333623 -61.153335
LeftForeArm 15.814869 0.000000 43.956537
LeftHand -26.104458 -0.000000 13.178442
LeftHandThumb1 -26.253704 0.000000 33.147579
RightShoulder -17.469226 16.701165 -29.710608
RightArm 24.277334 -27.015165 84.261250
RightForeArm -4.014601 0.000000 134.635472
RightHand 0.434488 -0.000000 -3.399704
RightHandThumb1 -24.326973 -0.000000 -32.862282
LeftUpLeg -4.446863 6.274450 -1.623114
LeftLeg 0.403986 -0.000000 -0.000000
LeftFoot -18.038334 18.782602 -19.761137
LeftToeBase 4.899298 -0.000000 -0.000000
RightUpLeg -18.525956 -3.030559 2.214500
RightLeg 20.734911 -0.000000 -0.000000
RightFoot -15.110590 -4.756964 -2.527394
RightToeBase -0.235371 -0.000000 0.000000
1618
root -4.011148 32.636422 -1.405991 10.742433 -4.695569 -1.335843
Spine -9.021163 9.742884 -0.560093
Head -3.688962 -20.625954 10.307824
LeftShoulder -10.351908 27.174443 13.352045
LeftArm 30.806602 38.084893 -61.021641
LeftForeArm 15.590189 -0.000000 44.838947
LeftHand -26.116393 0.000000 13.543993
LeftHandThumb1 -26.253704 0.000000 33.147579
RightShoulder -17.461422 16.790380 -29.760516
RightArm 24.631380 -27.024436 84.236054
RightForeArm -4.247625 0.000000 134.705482
RightHand 0.219929 -0.000000 -3.734906
RightHandThumb1 -24.326973 -0.000000 -32.862282
LeftUpLeg -4.554942 6.174044 -1.724673
LeftLeg 0.372346 -0.000000 -0.000000
LeftFoot -18.026259 18.828737 -19.797443
LeftToeBase 4.924070 -0.000000 -0.000000
RightUpLeg -19.130483 -3.067018 2.128905
RightLeg 21.710007 -0.000000 -0.000000
RightFoot -15.366980 -4.605376 -2.249362
RightToeBase -0.143061 -0.000000 0.000000
1619
root -4.015579 32.628332 -1.437633 10.825511 -4.692482 -1.146856
Spine -8.848217 9.661666 -0.754720
Head -3.977744 -20.596189 10.432027
LeftShoulder -10.271061 26.986844 13.441371
LeftArm 30.904397 37.874021 -60.928477
LeftForeArm 15.698154 -0.000000 45.776998
LeftHand -26.246698 -0.000000 13.727792
LeftHandThumb1 -26.253704 0.000000 33.147579
RightShoulder -17.444205 16.895497 -29.854133
RightArm 24.897428 -27.007166 84.290385
RightForeArm -4.416274 -0.000000 134.776896
RightHand 0.139731 -0.000000 -3.879009
RightHandThumb1 -24.326973 -0.000000 -32.862282
LeftUpLeg -4.692782 6.073095 -1.902191
LeftLeg 0.343558 -0.000000 -0.000000
LeftFoot -18.007865 18.853881 -19.867372
LeftToeBase 4.935776 -0.000000 -0.000000
RightUpLeg -19.816558 -3.053013 1.967470
RightLeg 22.818398 -0.000000 -0.000000
RightFoot -15.590729 -4.716183 -2.189604
RightToeBase -0.397938 -0.000000 0.000000
1620
root -4.019678 32.619151 -1.468964 10.903231 -4.696389 -0.927831
Spine -8.681558 9.588889 -1.004325
Head -4.239246 -20.497974 10.578092
LeftShoulder -10.143646 26.875325 13.578528
LeftArm 31.100262 37.606211 -60.806999
LeftForeArm 15.852911 -0.000000 46.704633
LeftHand -26.491460 -0.000000 14.503061
LeftHandThumb1 -26.253704 0.000000 33.147579
RightShoulder -17.412747 17.055642 -29.921789
RightArm 25.060168 -26.961873 84.382308
RightForeArm -4.500493 -0.000000 134.836857
RightHand -0.011804 -0.000000 -3.970603
RightHandThumb1 -24.326973 -0.000000 -32.862282
LeftUpLeg -4.840947 6.039768 -2.116260
LeftLeg 0.344134 -0.000000 -0.000000
LeftFoot -17.980082 18.817055 -19.937709
LeftToeBase 4.944594 -0.000000 -0.000000
RightUpLeg -20.515120 -2.952275 1.763520
RightLeg 23.949117 -0.000000 -0.000000
RightFoot -15.844747 -4.884530 -2.069384
RightToeBase -0.596167 -0.000000 0.000000
1621
root -4.026589 32.610984 -1.498040 10.979470 -4.662873 -0.731952
Spine -8.495416 9.501551 -1.176011
Head -4.500956 -20.462844 10.629242
LeftShoulder -10.026987 26.659251 13.647226
LeftArm 31.195528 37.397968 -60.665946
LeftForeArm 16.012494 0.000000 47.729493
LeftHand -26.628600 -0.000000 14.628115
LeftHandThumb1 -26.253704 0.000000 33.147579
RightShoulder -17.430943 17.159951 -30.027224
RightArm 25.273670 -26.983605 84.442027
RightForeArm -4.562521 -0.000000 134.842673
RightHand 0.054907 -0.000000 -4.097558
RightHandThumb1 -24.326973 -0.000000 -32.862282
LeftUpLeg -4.975142 5.980984 -2.292569
LeftLeg 0.325914 -0.000000 -0.000000
LeftFoot -17.930150 18.773986 -19.986997
LeftToeBase 4.923229 -0.000000 -0.000000
RightUpLeg -21.180593 -2.837373 1.577541
RightLeg 25.040463 -0.000000 -0.000000
RightFoot -16.054749 -5.050194 -2.001377
RightToeBase -0.707975 -0.000000 0.000000
